# xmcd CD database file
#
# Track frame offsets:
#	182
#	13837
#	28432
#	42427
#	54607
#	65745
#	77475
#	89917
#	101442
#	116515
#	127960
#	141695
#	154105
#	167155
#	178610
#	190380
#	203287
#	214315
#	228320
#	241635
#
# Disc length: 3428 seconds
#
# Revision: 1
# Processed by: cddbd v1.5.1PL2 Copyright (c) Steve Scherf et al.
# Submitted via: CDex 1.51
#
DISCID=200d6214
DTITLE=Glen Campbell - Country Classics (RD) Cd 1 [Glens Golden Hit Parade]
DYEAR=1900
DGENRE=Country
TTITLE0=Southern Nights
TTITLE1=Rhinestone Cowboy
TTITLE2=Wichita Lineman
TTITLE3=Galveston
TTITLE4=It's Only Make Believe
TTITLE5=All I Have To Do Is Dream
TTITLE6=I Wanna Live
TTITLE7=Dream Baby (How Long Must I Dream)
TTITLE8=Medley - Don't Pull Your Love - Then You Can Tell Me Goodbye
TTITLE9=True Grit
TTITLE10=Honey Come Back
TTITLE11=By The Time I Get To Phoenix
TTITLE12=Sunflower
TTITLE13=Everything A Man Could Ever Need
TTITLE14=Dreams Of The Everyday Housewife
TTITLE15=Bonaparte's Retreat
TTITLE16=Try A Little Kindness
TTITLE17=Country Boy (You Got Your Feet In L.A.)
TTITLE18=Where's The Playground Susie
TTITLE19=I'm Gonna Love You
EXTD=
EXTT0=
EXTT1=
EXTT2=
EXTT3=
EXTT4=
EXTT5=
EXTT6=
EXTT7=
EXTT8=
EXTT9=
EXTT10=
EXTT11=
EXTT12=
EXTT13=
EXTT14=
EXTT15=
EXTT16=
EXTT17=
EXTT18=
EXTT19=
PLAYORDER=
